<?xml version="1.0" standalone="no"?>
<!DOCTYPE svg PUBLIC "-//W3C//DTD SVG 20010904//EN"
 "http://www.w3.org/TR/2001/REC-SVG-20010904/DTD/svg10.dtd">
<svg version="1.0" xmlns="http://www.w3.org/2000/svg"
 width="482.000000pt" height="482.000000pt" viewBox="0 0 482.000000 482.000000"
 preserveAspectRatio="xMidYMid meet">
<metadata>
Created by potrace 1.14, written by Peter Selinger 2001-2017
</metadata>
<g transform="translate(0.000000,482.000000) scale(0.100000,-0.100000)"
fill="#000000" stroke="none">
<path d="M2258 4672 c-80 -81 -450 -451 -822 -822 l-676 -675 0 428 0 427 365
0 365 0 0 230 0 230 -595 0 -595 0 0 -887 0 -888 -152 -152 -152 -152 152
-151 152 -152 0 -904 0 -904 595 0 595 0 0 230 0 230 -365 0 -365 0 0 443 1
442 652 -655 c359 -360 730 -731 825 -824 l172 -169 806 804 c443 442 807 806
810 808 2 2 4 -188 4 -422 l0 -427 -365 0 -365 0 0 -230 0 -230 595 0 595 0 0
887 0 888 167 167 166 166 -166 168 -167 167 0 873 0 874 -595 0 -595 0 0
-225 0 -225 365 0 365 0 0 -417 0 -418 -806 808 c-443 444 -809 807 -812 807
-4 -1 -73 -67 -154 -148z m392 -1678 l0 -276 46 41 c140 123 377 116 507 -14
98 -98 140 -225 141 -425 1 -200 -37 -322 -134 -424 -75 -80 -149 -110 -265
-110 -112 1 -183 26 -254 90 l-50 45 -3 -58 -3 -58 -77 -3 -78 -3 0 736 0 735
85 0 85 0 0 -276z m-671 -155 c160 -25 279 -132 298 -264 l6 -45 -86 0 -85 0
-7 31 c-9 41 -61 98 -110 120 -54 25 -166 25 -220 0 -81 -37 -115 -113 -81
-179 22 -42 67 -64 216 -102 289 -74 393 -167 377 -338 -13 -145 -128 -246
-311 -273 -248 -37 -465 90 -500 294 l-7 37 91 0 90 0 0 -27 c0 -59 68 -130
146 -153 61 -18 190 -9 239 16 114 59 112 192 -5 250 -25 12 -101 36 -170 53
-260 64 -362 154 -347 311 17 189 225 309 466 269z"/>
<path d="M2795 2684 c-44 -16 -109 -74 -131 -116 -20 -39 -20 -467 0 -506 40
-77 136 -131 232 -132 71 0 116 13 161 47 155 114 161 539 10 669 -23 19 -57
39 -76 44 -51 14 -149 11 -196 -6z"/>
</g>
</svg>
