<?xml version="1.0" standalone="no"?>
<!DOCTYPE svg PUBLIC "-//W3C//DTD SVG 20010904//EN"
 "http://www.w3.org/TR/2001/REC-SVG-20010904/DTD/svg10.dtd">
<svg version="1.0" xmlns="http://www.w3.org/2000/svg"
 width="484.000000pt" height="484.000000pt" viewBox="0 0 484.000000 484.000000"
 preserveAspectRatio="xMidYMid meet">
<metadata>
Created by potrace 1.14, written by Peter Selinger 2001-2017
</metadata>
<g transform="translate(0.000000,484.000000) scale(0.100000,-0.100000)"
fill="#000000" stroke="none">
<path d="M2252 4675 l-164 -165 -424 0 -424 0 0 -423 0 -422 -230 -230 -230
-230 0 653 0 652 -235 0 -235 0 0 -887 0 -887 -148 -148 c-81 -82 -149 -151
-151 -153 -2 -3 64 -73 147 -155 l152 -151 0 -904 0 -905 235 0 235 0 0 667 0
668 230 -230 230 -230 0 -437 0 -438 438 0 438 0 151 -152 151 -153 152 152
152 153 424 0 424 0 0 423 0 422 230 230 230 230 0 -653 0 -652 235 0 235 0 0
889 c0 489 3 891 8 893 4 2 79 76 166 165 l159 161 -166 167 -167 167 0 874 0
874 -235 0 -235 0 0 -637 0 -638 -230 230 -230 230 0 407 0 408 -408 0 -407 0
-165 165 c-91 91 -167 165 -170 165 -3 -1 -79 -75 -168 -165z m408 -1696 l0
-271 35 31 c20 17 59 43 88 59 48 25 60 27 172 27 107 0 125 -3 170 -25 110
-54 192 -174 220 -323 19 -100 19 -272 0 -361 -32 -149 -115 -270 -224 -323
-51 -26 -66 -28 -166 -28 -124 0 -172 16 -250 80 -24 19 -45 31 -49 28 -3 -4
-6 -26 -6 -50 l0 -43 -80 0 -80 0 0 735 0 735 85 0 85 0 0 -271z m-567 -182
c32 -14 76 -40 97 -57 48 -38 100 -138 100 -192 l0 -39 -86 3 -86 3 -13 38
c-28 83 -102 127 -211 127 -120 0 -199 -57 -199 -145 0 -32 6 -50 25 -70 32
-36 64 -48 221 -90 272 -73 358 -148 359 -310 0 -119 -53 -201 -168 -259 -128
-64 -330 -62 -462 4 -103 52 -173 143 -186 243 l-7 47 90 0 90 0 7 -40 c9 -57
74 -121 141 -140 182 -51 352 41 315 170 -20 70 -66 96 -252 146 -204 54 -285
99 -329 185 -23 46 -26 163 -5 213 19 46 81 112 133 143 76 44 118 53 248 50
106 -2 127 -5 178 -30z"/>
<path d="M2795 2656 c-53 -25 -80 -50 -114 -106 -20 -33 -21 -49 -21 -253 0
-242 1 -246 67 -308 52 -50 96 -70 162 -76 87 -8 138 10 196 70 75 77 90 132
90 322 -1 134 -3 156 -24 209 -29 72 -91 137 -147 154 -67 20 -152 15 -209
-12z"/>
</g>
</svg>
