<svg width="20" height="20" viewBox="0 0 20 20" fill="none" xmlns="http://www.w3.org/2000/svg">
<g clip-path="url(#clip0_19_28)">
<circle cx="10" cy="10" r="9.5" stroke="white"/>
<path d="M13.6483 5.90909C14.1504 5.40701 14.9644 5.40701 15.4665 5.90909C15.9686 6.41117 15.9686 7.22519 15.4665 7.72727L9.10288 14.0909C8.6008 14.593 7.78678 14.593 7.2847 14.0909C6.78262 13.5888 6.78262 12.7748 7.2847 12.2727L13.6483 5.90909Z" fill="white"/>
<path d="M9.10692 12.2727C9.609 12.7748 9.609 13.5888 9.10692 14.0909C8.60484 14.593 7.79082 14.593 7.28874 14.0909L4.90909 11.7113C4.40701 11.2092 4.40701 10.3952 4.90909 9.89308C5.41117 9.391 6.22519 9.391 6.72727 9.89308L9.10692 12.2727Z" fill="white"/>
</g>
<defs>
<clipPath id="clip0_19_28">
<rect width="20" height="20" fill="white"/>
</clipPath>
</defs>
</svg>
