<svg width="20" height="20" viewBox="0 0 20 20" fill="none" xmlns="http://www.w3.org/2000/svg">
<g clip-path="url(#clip0_19_36)">
<circle cx="10" cy="10" r="9.5" stroke="white"/>
<path d="M5.90909 7.72727C5.40701 7.22519 5.40701 6.41117 5.90909 5.90909C6.41117 5.40701 7.22519 5.40701 7.72727 5.90909L14.0909 12.2727C14.593 12.7748 14.593 13.5888 14.0909 14.0909C13.5888 14.593 12.7748 14.593 12.2727 14.0909L5.90909 7.72727Z" fill="white"/>
<path d="M12.2727 5.90909C12.7748 5.40701 13.5888 5.40701 14.0909 5.90909C14.593 6.41117 14.593 7.22519 14.0909 7.72727L7.72727 14.0909C7.22519 14.593 6.41117 14.593 5.90909 14.0909C5.40701 13.5888 5.40701 12.7748 5.90909 12.2727L12.2727 5.90909Z" fill="white"/>
</g>
<defs>
<clipPath id="clip0_19_36">
<rect width="20" height="20" fill="white"/>
</clipPath>
</defs>
</svg>
