<svg width="20" height="20" viewBox="0 0 20 20" fill="none" xmlns="http://www.w3.org/2000/svg">
<g clip-path="url(#clip0_19_22)">
<circle cx="10" cy="10" r="9.5" stroke="black"/>
<rect x="9" y="4" width="2" height="2" rx="0.5" fill="black"/>
<path d="M9 7H10.75C10.8881 7 11 7.11193 11 7.25V14.75C11 14.8881 11.1119 15 11.25 15H11.75C11.8881 15 12 15.1119 12 15.25V15.75C12 15.8881 11.8881 16 11.75 16H11H9H8.25C8.11193 16 8 15.8881 8 15.75V15.25C8 15.1119 8.11193 15 8.25 15H8.75C8.88807 15 9 14.8881 9 14.75V8.75C9 8.61193 8.88807 8.5 8.75 8.5H8.25C8.11193 8.5 8 8.38807 8 8.25V7.25C8 7.11193 8.11193 7 8.25 7H9Z" fill="black"/>
</g>
<defs>
<clipPath id="clip0_19_22">
<rect width="20" height="20" fill="white"/>
</clipPath>
</defs>
</svg>
