<?xml version="1.0" standalone="no"?>
<!DOCTYPE svg PUBLIC "-//W3C//DTD SVG 20010904//EN"
 "http://www.w3.org/TR/2001/REC-SVG-20010904/DTD/svg10.dtd">
<svg version="1.0" xmlns="http://www.w3.org/2000/svg"
 width="512.000000pt" height="512.000000pt" viewBox="0 0 512.000000 512.000000"
 preserveAspectRatio="xMidYMid meet">
<metadata>
Created by potrace 1.14, written by Peter Selinger 2001-2017
</metadata>
<g transform="translate(0.000000,512.000000) scale(0.100000,-0.100000)"
fill="#000000" stroke="none">
<path d="M3820 4881 c0 -8 -7 -11 -20 -8 -11 3 -20 2 -20 -2 0 -7 -24 -11 -68
-11 -13 0 -21 -4 -18 -9 7 -11 -13 -9 -31 2 -8 5 -13 4 -13 -2 0 -6 -5 -11
-11 -11 -5 0 -8 4 -4 9 3 5 -8 3 -25 -5 -16 -9 -34 -13 -40 -9 -5 3 -10 1 -10
-6 0 -9 -3 -9 -14 0 -10 8 -16 9 -21 1 -3 -6 -10 -8 -15 -5 -5 3 -11 1 -15 -5
-3 -5 -12 -10 -18 -10 -7 0 -6 4 3 10 9 6 10 10 3 10 -6 0 -15 -5 -18 -11 -4
-6 -13 -8 -21 -5 -8 3 -14 1 -14 -5 0 -6 -6 -9 -14 -6 -7 3 -19 0 -26 -6 -10
-9 -11 -9 -6 0 5 9 -1 8 -20 -2 -15 -7 -32 -11 -39 -9 -7 3 -16 1 -20 -5 -3
-6 -17 -11 -31 -11 -13 0 -24 -4 -24 -10 0 -14 -27 -12 -33 3 -3 7 -6 6 -6 -5
-1 -9 -6 -20 -13 -24 -8 -5 -9 -1 -5 12 7 18 6 18 -6 2 -8 -10 -17 -15 -20
-11 -4 3 -7 1 -7 -6 0 -7 -5 -9 -11 -5 -6 3 -24 -8 -39 -25 -18 -20 -30 -26
-33 -18 -3 6 -6 1 -6 -11 -1 -15 -9 -26 -21 -29 -19 -5 -19 -6 -3 -18 15 -11
15 -13 -6 -24 -17 -10 -20 -16 -11 -26 8 -10 7 -14 -2 -18 -11 -4 -10 -6 0 -6
7 -1 10 -6 7 -11 -4 -6 -1 -18 7 -27 9 -12 9 -15 1 -9 -7 4 -13 2 -13 -3 0 -6
5 -11 12 -11 6 0 8 -3 5 -7 -4 -3 -2 -12 4 -20 6 -7 8 -13 3 -13 -4 0 1 -7 12
-16 10 -8 13 -12 5 -8 -9 5 -12 3 -7 -4 4 -7 12 -12 18 -12 6 0 22 -12 36 -27
13 -16 21 -22 18 -15 -11 19 12 14 23 -5 6 -11 11 -13 11 -5 0 7 5 10 10 7 6
-4 7 -12 4 -18 -5 -9 -4 -9 6 0 9 8 19 9 32 2 13 -7 18 -6 18 2 0 9 4 8 14 0
11 -10 17 -8 25 6 7 12 10 13 11 4 0 -11 3 -11 17 0 14 12 16 12 9 -1 -4 -9
-2 -8 7 2 8 10 17 15 20 11 4 -3 13 0 22 7 12 10 15 10 15 -1 1 -10 4 -9 11 3
5 10 16 15 24 12 8 -4 15 -2 15 4 0 5 7 12 15 16 8 3 14 2 14 -2 -3 -19 2 -26
10 -13 5 8 25 15 45 16 20 1 40 5 43 9 3 3 17 6 30 6 12 0 23 5 23 11 0 5 5 7
10 4 6 -4 7 -12 3 -18 -3 -7 3 -3 15 7 17 14 22 16 22 5 0 -10 3 -10 8 -3 9
15 53 21 71 10 11 -7 13 -5 7 10 -6 15 -5 16 5 7 13 -13 19 -33 21 -70 0 -13
5 -23 11 -23 6 0 8 -3 4 -6 -3 -3 -2 -17 3 -30 6 -15 6 -24 0 -24 -6 0 -10 -4
-10 -10 0 -6 5 -9 11 -8 12 3 20 -19 22 -64 1 -16 6 -28 11 -28 4 0 6 -7 2
-15 -3 -8 0 -15 7 -15 8 0 6 -4 -3 -10 -13 -8 -13 -10 2 -10 11 0 15 -7 13
-25 -1 -14 2 -28 7 -31 5 -3 7 -12 4 -20 -3 -8 -1 -14 5 -14 6 0 9 -7 5 -15
-3 -8 2 -19 12 -24 12 -7 13 -10 3 -11 -10 0 -11 -3 -2 -14 9 -11 9 -15 -1
-19 -8 -3 -6 -6 5 -6 10 -1 16 -5 13 -10 -4 -5 -2 -21 4 -35 7 -19 6 -26 -3
-27 -6 0 -2 -4 11 -10 15 -6 21 -13 16 -21 -10 -16 -13 -48 -4 -43 9 5 32
-113 25 -125 -3 -6 -1 -10 5 -10 6 0 8 -4 5 -10 -3 -5 -2 -10 2 -10 8 0 13
-23 16 -67 0 -7 4 -13 9 -13 5 0 6 -5 3 -10 -4 -6 -1 -18 7 -27 9 -12 9 -15 1
-9 -7 4 -13 2 -13 -3 0 -6 5 -11 11 -11 5 0 8 -4 4 -9 -3 -5 0 -13 6 -17 8 -4
7 -9 -2 -15 -10 -6 -11 -9 -1 -9 6 0 12 -11 12 -24 0 -14 5 -28 10 -31 8 -5 8
-11 0 -20 -8 -9 -8 -15 0 -20 5 -3 10 -15 10 -26 0 -10 6 -19 13 -19 8 0 7 -4
-3 -10 -13 -8 -13 -11 -1 -19 8 -5 11 -16 8 -25 -4 -9 -3 -16 2 -16 5 0 8 -10
7 -22 -1 -13 4 -32 11 -44 7 -11 10 -24 7 -27 -4 -4 -2 -13 5 -20 6 -8 9 -21
5 -30 -3 -8 0 -18 6 -22 6 -4 8 -15 5 -25 -3 -10 -1 -21 5 -25 6 -3 8 -11 4
-16 -3 -5 -1 -15 4 -22 5 -7 8 -20 7 -30 -2 -9 1 -15 6 -11 8 4 11 -9 8 -32 0
-4 5 -11 13 -15 11 -7 11 -9 0 -9 -10 0 -9 -4 2 -16 9 -8 14 -20 11 -25 -4 -5
-1 -9 4 -9 6 0 10 -3 9 -7 -5 -19 16 -79 31 -90 14 -12 14 -12 -1 -7 -22 8
-24 -12 -2 -20 9 -4 14 -13 10 -21 -3 -8 -1 -15 4 -15 5 0 7 -6 4 -14 -3 -8 0
-17 6 -21 9 -6 9 -10 -1 -16 -11 -7 -9 -9 6 -9 17 0 17 -2 5 -10 -11 -7 -11
-10 -2 -10 7 0 10 -4 7 -10 -3 -5 -2 -10 3 -10 6 0 16 -22 23 -50 7 -27 18
-50 23 -50 6 0 4 -5 -4 -10 -10 -6 -11 -10 -2 -10 6 0 12 -7 12 -16 0 -9 5
-12 13 -8 9 5 9 4 0 -6 -10 -10 -8 -20 9 -43 12 -17 16 -27 9 -23 -8 5 -6 -2
4 -18 10 -14 14 -26 10 -26 -4 0 -2 -7 5 -15 10 -12 10 -15 -1 -15 -12 0 -12
-2 0 -9 8 -5 10 -14 6 -21 -5 -8 -4 -11 3 -6 6 3 13 2 17 -4 3 -5 0 -10 -7
-10 -10 0 -10 -2 1 -9 8 -5 10 -14 6 -22 -6 -9 -4 -11 8 -6 14 5 15 3 4 -14
-10 -16 -9 -21 2 -28 8 -5 11 -16 8 -25 -4 -9 -2 -16 2 -16 5 0 7 -10 3 -22
-3 -14 -1 -19 6 -14 7 4 9 -1 7 -15 -3 -13 0 -28 6 -35 6 -7 8 -18 4 -24 -4
-6 -2 -16 3 -23 5 -7 9 -32 9 -55 0 -27 5 -47 14 -53 8 -5 9 -9 2 -9 -12 0
-12 -17 0 -37 4 -6 1 -14 -5 -16 -10 -4 -10 -7 0 -15 7 -5 14 -24 14 -43 0
-19 4 -39 9 -44 4 -6 4 -17 -1 -25 -5 -8 -5 -21 1 -32 5 -10 7 -18 4 -18 -3 0
-1 -10 6 -21 8 -15 8 -19 0 -15 -6 4 -11 2 -11 -5 0 -8 -5 -7 -17 2 -9 8 -14
9 -10 2 5 -7 -6 -16 -30 -24 -21 -7 -41 -12 -45 -11 -5 1 -8 -2 -8 -7 0 -6 -9
-8 -20 -6 -11 2 -18 0 -15 -6 6 -8 -24 -13 -70 -11 -12 0 -15 -1 -6 -5 17 -7
-48 -31 -101 -37 -21 -2 -45 -11 -54 -20 -19 -19 -28 -21 -18 -4 4 7 -2 5 -14
-5 -11 -11 -26 -16 -31 -12 -6 3 -13 0 -16 -7 -3 -7 -17 -14 -31 -15 -15 0
-30 -7 -35 -15 -7 -11 -9 -10 -9 1 0 11 -3 11 -13 -3 -7 -9 -22 -18 -34 -19
-12 0 -20 -4 -19 -7 4 -7 -31 -39 -37 -33 -3 2 -8 -6 -12 -19 -4 -13 -13 -26
-19 -30 -8 -5 -7 -8 2 -8 10 0 9 -4 -3 -16 -12 -12 -13 -20 -5 -29 8 -10 7
-16 -7 -24 -12 -7 -13 -10 -4 -11 8 0 11 -7 8 -20 -3 -11 -1 -20 4 -20 4 0 6
-7 3 -15 -4 -9 3 -24 16 -35 15 -13 18 -20 9 -20 -8 0 -3 -6 11 -13 14 -8 24
-19 22 -26 -1 -7 3 -11 10 -9 7 3 19 -2 26 -11 8 -9 11 -10 7 -3 -3 6 -1 12 4
12 6 0 11 -6 11 -14 0 -8 5 -18 12 -22 7 -4 8 -3 4 5 -5 8 0 10 18 7 14 -3 29
-7 34 -10 4 -2 14 -1 22 4 9 5 20 4 28 -2 7 -6 12 -7 11 -2 -4 20 2 24 20 14
14 -7 22 -7 27 2 5 7 3 8 -7 3 -8 -5 -10 -4 -6 0 4 5 14 10 22 12 35 7 41 9
53 16 6 5 16 6 21 2 5 -3 13 0 16 6 4 5 13 8 21 5 8 -3 17 1 20 8 3 8 12 17
20 20 10 4 13 2 8 -7 -6 -9 -5 -9 8 0 8 7 18 10 21 6 4 -3 7 -2 7 4 0 5 7 10
15 11 8 1 22 3 30 4 8 1 15 5 15 9 0 4 11 6 25 5 14 -2 22 1 18 6 -3 6 3 7 17
3 17 -5 21 -4 15 6 -6 9 -3 11 8 6 10 -4 17 -2 17 4 0 6 7 9 15 5 8 -3 15 -1
15 5 0 6 4 8 9 4 5 -3 15 1 23 8 7 7 23 12 36 11 12 -1 22 3 22 7 0 5 9 9 21
9 11 0 30 5 41 11 16 9 19 8 12 -3 -6 -11 -5 -11 9 1 9 7 17 10 17 5 0 -4 7 1
16 12 8 10 13 13 9 7 -7 -15 11 -18 20 -3 4 6 11 8 16 5 5 -4 9 -1 9 4 0 6 9
11 21 11 11 0 17 5 14 10 -3 6 1 10 10 10 9 0 13 5 10 10 -6 9 8 14 28 11 5
-1 6 3 3 8 -8 13 4 42 15 35 5 -3 9 -2 10 3 3 36 12 60 25 69 12 9 12 13 2 16
-10 4 -10 9 2 23 9 11 10 16 2 11 -14 -8 -12 19 2 43 7 10 6 12 -4 6 -10 -6
-12 -3 -8 12 3 11 1 28 -5 38 -7 13 -6 16 2 11 8 -5 10 0 7 16 -15 70 -17 100
-7 93 7 -3 8 0 5 9 -3 9 -10 16 -15 16 -5 0 -8 8 -7 17 1 10 0 37 0 61 -2 32
-5 41 -14 36 -9 -5 -9 -2 1 9 11 14 11 17 0 17 -11 0 -11 2 1 10 13 9 13 10 0
10 -13 0 -13 1 0 10 8 5 10 10 4 10 -6 0 -11 11 -11 25 0 15 4 22 11 19 6 -3
4 1 -6 8 -11 10 -13 19 -7 31 8 13 6 15 -7 10 -13 -5 -15 -3 -8 8 13 21 14 39
2 39 -6 0 -8 13 -6 30 3 17 0 30 -5 30 -5 0 -6 7 -3 16 4 10 2 13 -6 8 -7 -5
-9 -2 -5 8 3 9 0 21 -6 28 -9 10 -9 11 3 5 13 -8 13 -6 2 8 -8 9 -11 21 -7 27
3 5 1 10 -5 10 -6 0 -9 4 -5 9 3 5 1 12 -4 15 -5 4 -8 14 -6 24 1 9 -3 23 -9
31 -6 9 -7 12 -1 9 6 -4 11 2 11 12 0 14 -4 16 -12 9 -9 -8 -11 -5 -7 10 3 13
1 21 -6 21 -7 0 -9 5 -6 10 4 6 1 17 -5 25 -10 12 -10 15 0 15 9 0 7 7 -6 21
-16 17 -16 22 -4 29 12 8 12 10 -4 10 -16 0 -16 2 -6 16 11 12 11 15 -1 12 -9
-2 -13 4 -11 15 2 9 -2 17 -7 17 -6 0 -7 7 -4 17 4 10 2 14 -4 10 -6 -4 -13 2
-16 13 -3 11 -1 18 4 14 5 -3 6 2 3 10 -3 9 -9 16 -13 16 -4 0 -8 6 -9 13 -1
17 -7 38 -19 67 -6 14 -9 28 -6 33 2 4 -1 7 -6 7 -6 0 -11 9 -11 19 0 11 -6
21 -12 24 -10 3 -10 8 1 21 12 15 12 17 0 14 -10 -2 -14 6 -13 29 1 18 -2 30
-7 27 -8 -4 -14 26 -10 49 1 5 -3 6 -9 2 -6 -4 -10 4 -10 19 0 14 -4 26 -10
26 -5 0 -7 7 -4 15 4 8 1 22 -6 30 -6 8 -9 19 -5 25 3 5 2 10 -3 10 -6 0 -13
7 -16 16 -3 8 -2 12 4 9 6 -3 7 1 4 9 -3 9 -11 16 -16 16 -6 0 -8 13 -6 30 3
20 0 31 -11 35 -13 5 -14 7 -1 15 8 6 10 10 4 10 -10 0 -14 12 -15 53 0 9 -5
17 -11 17 -7 0 -7 5 1 14 9 10 8 16 -4 26 -13 10 -13 15 -3 21 9 6 8 10 -5 15
-14 5 -15 9 -6 20 9 11 7 15 -6 20 -13 5 -14 9 -3 15 9 6 10 9 1 9 -7 0 -10 7
-7 15 4 8 1 15 -6 15 -10 0 -10 3 0 15 7 8 8 15 3 15 -5 0 -10 6 -11 13 0 12
-5 29 -18 76 -6 19 -4 23 7 17 8 -4 5 0 -5 8 -11 9 -17 19 -13 22 4 4 2 13 -4
21 -9 10 -8 13 2 13 10 1 10 3 -2 10 -10 6 -15 20 -14 35 2 14 -1 25 -6 25 -5
0 -9 7 -9 16 0 9 5 13 13 9 6 -4 5 -1 -4 7 -9 7 -14 19 -11 26 2 7 -1 18 -7
26 -6 7 -9 22 -6 34 2 12 0 22 -5 22 -5 0 -6 7 -3 17 5 12 3 14 -8 8 -11 -7
-12 -6 -2 6 9 11 8 18 -3 33 -11 16 -11 21 -1 28 9 6 9 8 -1 8 -7 0 -10 5 -7
10 3 6 2 10 -4 10 -5 0 -8 9 -6 20 2 11 -3 26 -11 34 -10 11 -11 16 -1 19 9 4
9 6 0 6 -7 1 -13 6 -13 12 0 5 6 7 13 3 6 -4 5 1 -4 12 -9 10 -15 27 -14 37 2
9 -1 17 -6 17 -5 0 -9 11 -9 25 0 14 -6 25 -12 25 -10 0 -10 2 -1 8 10 6 8 17
-7 47 -13 26 -16 42 -10 50 7 9 6 16 -5 25 -8 7 -12 16 -9 21 3 5 0 9 -6 9 -6
0 -9 4 -5 9 3 5 1 12 -4 15 -5 3 -7 15 -4 26 3 11 1 20 -4 20 -5 0 -10 16 -11
36 -1 20 -5 41 -10 48 -5 6 -10 18 -10 26 -3 43 -8 66 -13 70 -4 3 -8 21 -10
40 -2 19 -8 38 -14 42 -6 5 -5 8 3 8 7 0 10 5 7 10 -4 6 -10 8 -15 5 -4 -3 -6
4 -3 15 3 13 0 20 -8 20 -10 0 -10 3 -1 12 9 9 6 17 -15 36 -16 13 -21 20 -13
16 13 -7 13 -5 1 9 -7 9 -17 14 -22 11 -9 -5 -13 10 -10 30 1 5 -6 3 -15 -5
-12 -9 -15 -9 -10 -1 5 8 0 12 -14 12 -12 0 -18 5 -15 10 3 6 -4 10 -18 10
-13 0 -27 3 -31 7 -9 10 -37 13 -31 4 2 -4 -2 -8 -10 -8 -8 0 -12 4 -9 9 3 4
1 8 -5 8 -5 0 -13 -5 -17 -11 -4 -8 -9 -7 -15 2 -7 11 -9 11 -9 -1 0 -13 -1
-13 -10 0 -8 12 -10 12 -10 1z m395 -581 c3 -5 1 -10 -4 -10 -6 0 -11 5 -11
10 0 6 2 10 4 10 3 0 8 -4 11 -10z"/>
<path d="M1196 4315 c-10 -8 -24 -11 -32 -8 -8 3 -17 -2 -20 -11 -3 -9 -10
-14 -14 -11 -4 3 -20 -5 -36 -17 -16 -13 -25 -16 -20 -8 4 8 -2 4 -14 -10 -12
-14 -19 -18 -15 -10 4 8 -1 6 -10 -5 -9 -11 -20 -21 -25 -21 -6 -1 -15 -2 -21
-3 -5 0 -7 -6 -3 -12 4 -7 1 -10 -7 -7 -8 3 -20 -1 -27 -9 -8 -7 -18 -11 -23
-8 -5 4 -9 1 -9 -6 0 -7 -3 -10 -6 -6 -4 3 -13 0 -21 -8 -17 -17 -37 -20 -28
-4 4 6 -2 5 -13 -2 -12 -7 -19 -16 -17 -19 2 -3 -12 -5 -31 -5 -19 1 -34 -1
-34 -5 0 -3 -15 -7 -32 -8 -18 -2 -37 -7 -42 -12 -4 -4 -15 -6 -24 -3 -11 5
-13 2 -7 -6 6 -10 3 -11 -15 -1 -18 10 -21 9 -15 -1 6 -9 2 -11 -14 -6 -13 3
-24 0 -27 -7 -3 -7 -16 -12 -30 -10 -13 1 -22 -2 -18 -7 3 -5 -7 -9 -21 -9
-14 0 -24 -4 -21 -9 3 -4 -6 -7 -19 -5 -14 1 -23 -1 -20 -6 6 -10 -24 -22 -36
-15 -5 4 -7 0 -4 -7 3 -7 -9 -29 -26 -47 -17 -19 -32 -40 -33 -47 -1 -7 -8
-19 -14 -27 -9 -11 -10 -17 -2 -22 8 -5 8 -11 -1 -21 -6 -8 -8 -14 -4 -14 4 0
2 -6 -4 -14 -8 -10 -9 -16 -1 -21 5 -3 10 -11 10 -16 0 -6 -4 -8 -8 -5 -10 6
-7 -78 3 -94 4 -7 1 -16 -6 -21 -9 -6 -10 -9 -2 -9 7 0 10 -10 7 -26 -3 -14
-1 -23 5 -20 5 3 7 -3 4 -14 -3 -11 -10 -20 -16 -20 -6 0 -2 -7 9 -16 10 -8
13 -12 5 -8 -10 5 -13 3 -8 -9 3 -9 1 -18 -6 -21 -7 -2 -4 -5 7 -5 15 -1 16
-4 6 -16 -10 -12 -10 -15 1 -15 12 0 12 -2 0 -9 -8 -5 -9 -11 -3 -15 5 -3 8
-20 6 -38 -2 -18 1 -35 8 -40 10 -6 9 -8 -2 -8 -13 0 -13 -1 0 -10 8 -5 10
-10 4 -10 -12 0 -12 -28 -1 -47 4 -6 1 -14 -5 -16 -10 -4 -10 -7 -1 -14 7 -5
12 -17 12 -28 1 -41 5 -55 15 -55 5 0 2 -6 -9 -13 -14 -11 -15 -16 -5 -22 9
-6 11 -4 5 5 -5 9 -4 11 3 6 9 -5 9 -13 2 -27 -8 -13 -7 -19 0 -19 7 0 7 -7
-1 -21 -8 -15 -8 -19 0 -15 10 7 17 -34 12 -71 -1 -7 3 -13 10 -13 9 0 9 -3 0
-14 -8 -10 -9 -16 -1 -21 5 -3 10 -22 10 -41 0 -19 4 -33 8 -30 5 3 9 -1 9 -9
0 -8 -5 -15 -10 -15 -5 0 -4 -7 3 -15 7 -8 10 -22 6 -30 -3 -9 -2 -13 4 -10
13 8 13 -1 -2 -28 -10 -20 -9 -21 5 -9 13 11 15 10 13 -13 -2 -14 0 -28 4 -30
5 -3 7 -16 5 -30 -1 -14 2 -25 7 -25 5 0 6 -6 1 -12 -13 -21 -12 -37 3 -49 8
-6 11 -15 8 -21 -3 -5 0 -16 8 -25 9 -12 9 -15 1 -9 -7 4 -13 2 -13 -3 0 -6 4
-11 8 -11 4 0 8 -9 9 -20 1 -13 -2 -18 -10 -13 -7 3 -3 -4 8 -17 12 -14 14
-20 5 -15 -12 7 -13 6 -3 -7 7 -8 10 -18 6 -21 -3 -4 0 -14 8 -24 9 -11 10
-14 2 -9 -7 4 -13 2 -13 -3 0 -6 5 -11 11 -11 5 0 7 -5 4 -10 -4 -6 -1 -18 7
-27 11 -14 11 -16 -1 -8 -11 6 -13 4 -6 -11 4 -10 8 -31 9 -46 0 -15 4 -24 10
-21 5 4 7 -3 4 -15 -4 -12 -2 -22 4 -22 5 0 6 -9 3 -20 -3 -11 -2 -20 3 -20 5
0 9 -16 10 -35 3 -57 5 -65 15 -65 5 0 4 -6 -2 -14 -9 -11 -9 -16 0 -21 8 -6
7 -10 -2 -16 -12 -7 -12 -9 0 -9 9 0 12 -9 9 -30 -3 -17 -1 -30 3 -30 4 0 5
-9 2 -19 -3 -10 0 -27 5 -38 7 -12 7 -25 1 -36 -6 -10 -7 -17 -2 -16 20 3 27
-2 13 -11 -13 -9 -13 -11 0 -19 8 -6 11 -13 7 -17 -4 -4 -1 -14 6 -22 10 -13
9 -14 -3 -7 -13 8 -13 6 -2 -8 8 -9 12 -22 9 -29 -2 -7 0 -21 5 -32 8 -14 7
-17 -3 -11 -8 6 -10 4 -4 -5 4 -7 8 -26 7 -41 0 -16 4 -29 11 -29 8 0 8 -3 -1
-12 -14 -14 -16 -32 -3 -24 5 3 9 -11 10 -32 1 -57 4 -72 11 -72 3 0 7 -21 9
-48 1 -26 7 -49 12 -50 6 -3 5 -9 -2 -18 -9 -11 -9 -14 0 -14 9 0 9 -5 0 -21
-8 -15 -8 -19 0 -15 11 7 15 -4 12 -36 -1 -10 2 -18 7 -18 5 0 9 -7 9 -15 0
-8 -5 -15 -11 -15 -6 0 -4 -5 4 -10 8 -5 11 -10 6 -10 -5 0 -3 -7 4 -15 10
-12 10 -15 -1 -15 -11 0 -11 -2 1 -10 11 -7 11 -10 2 -10 -7 0 -11 -4 -7 -10
3 -5 6 -25 7 -45 1 -19 5 -35 10 -35 5 0 4 -8 -1 -18 -7 -13 -6 -23 1 -30 7
-7 8 -12 4 -12 -5 0 -3 -7 4 -15 10 -12 10 -15 -1 -15 -9 -1 -8 -5 5 -15 14
-11 16 -15 5 -15 -11 0 -12 -2 0 -9 9 -6 10 -10 2 -16 -9 -5 -9 -11 0 -22 10
-11 10 -16 0 -22 -10 -7 -10 -9 1 -14 10 -3 14 -19 12 -46 -1 -23 2 -41 7 -41
5 0 9 -9 9 -21 0 -13 -4 -18 -12 -13 -7 4 -6 -1 3 -12 9 -10 15 -33 15 -50 -1
-20 3 -30 9 -27 7 2 12 -3 12 -11 0 -8 -5 -12 -11 -9 -6 4 -5 0 1 -9 7 -8 10
-18 6 -21 -3 -4 -2 -7 3 -7 5 0 11 -11 12 -26 1 -17 -2 -23 -11 -19 -6 4 -5 1
3 -7 8 -7 15 -25 14 -40 -1 -16 3 -28 7 -28 4 0 6 -9 4 -20 -2 -11 1 -20 7
-20 5 0 8 -7 4 -15 -3 -8 -1 -15 4 -15 6 0 10 -8 10 -17 0 -16 2 -16 11 -3 9
12 10 11 6 -8 -3 -12 -1 -19 4 -16 5 3 12 -2 15 -10 3 -9 15 -16 25 -16 10 0
19 -7 19 -15 0 -9 6 -12 15 -9 8 4 15 1 15 -5 0 -9 5 -9 21 0 12 6 19 7 15 1
-3 -5 8 -12 24 -14 17 -3 30 -2 30 1 0 3 15 6 32 5 18 -1 36 4 40 10 5 8 8 7
8 -1 0 -7 5 -13 11 -13 5 0 7 4 4 10 -3 6 1 7 9 4 10 -4 16 -1 16 7 0 11 3 11
10 -1 7 -11 10 -12 10 -2 0 9 7 11 20 7 12 -4 20 -2 20 5 0 7 6 10 14 7 7 -3
24 2 37 10 12 9 20 12 16 6 -3 -5 0 -10 8 -10 8 0 12 4 9 9 -3 4 3 9 13 10 32
2 38 4 61 16 12 7 22 10 22 6 0 -3 7 -1 15 6 8 6 19 9 25 5 5 -3 10 -1 10 5 0
6 4 9 9 5 5 -3 13 0 17 6 4 8 9 7 15 -2 7 -11 9 -11 9 -1 0 7 5 10 10 7 6 -3
10 -1 10 5 0 6 8 10 18 9 9 -1 20 0 25 1 15 5 27 8 43 9 8 0 12 5 9 11 -3 6 1
7 9 4 9 -3 16 -11 16 -17 0 -6 6 -2 14 8 8 11 19 16 30 12 11 -5 15 -3 10 5
-5 8 -2 9 10 5 9 -4 15 -3 12 2 -3 4 6 13 19 19 14 7 25 16 25 22 0 6 4 9 9 5
5 -3 12 4 16 15 4 12 11 17 18 13 7 -4 6 1 -2 10 -12 15 -11 17 2 17 10 0 15
7 12 20 -2 11 1 20 7 20 6 0 5 7 -3 17 -12 15 -12 16 5 9 20 -7 20 -7 0 15
-10 12 -13 19 -6 15 6 -4 12 -2 12 3 0 6 -5 11 -11 11 -5 0 -7 5 -3 11 3 6 0
15 -7 20 -12 7 -12 9 0 9 11 0 10 4 -5 16 -10 8 -12 13 -4 9 8 -4 4 3 -10 15
-14 12 -18 19 -10 15 8 -4 6 0 -5 9 -11 8 -25 20 -32 26 -7 5 -17 10 -23 10
-13 0 -53 22 -62 35 -5 6 -8 5 -8 -2 0 -7 -7 -13 -15 -13 -8 0 -15 6 -15 13 0
8 -3 9 -8 1 -4 -6 -19 -10 -34 -10 -19 1 -28 -3 -29 -14 0 -11 -2 -11 -6 -2
-4 10 -8 10 -21 0 -13 -11 -14 -11 -7 2 8 13 6 13 -8 2 -9 -8 -21 -11 -27 -7
-5 3 -10 2 -10 -4 0 -5 -11 -8 -25 -6 -14 1 -25 -2 -25 -7 0 -5 -4 -7 -8 -4
-5 3 -21 -1 -36 -9 -14 -8 -24 -10 -21 -5 9 15 -2 12 -19 -6 -9 -8 -16 -11
-16 -5 0 6 -5 11 -11 11 -5 0 -8 -4 -5 -9 3 -5 -1 -11 -9 -15 -8 -3 -17 0 -21
6 -5 7 -11 6 -19 -6 -7 -9 -29 -17 -51 -19 -32 -2 -39 1 -38 15 1 10 -3 15 -9
11 -6 -4 -8 0 -4 9 3 9 0 21 -6 27 -8 8 -8 11 1 11 9 0 7 9 -5 27 -10 15 -12
24 -5 20 6 -5 12 -4 12 2 0 6 -4 11 -9 11 -4 0 -7 18 -6 40 1 22 -2 40 -8 40
-6 0 -5 5 2 13 7 10 7 17 0 24 -6 6 -11 27 -11 47 0 20 -4 36 -8 36 -4 0 -7
23 -6 50 0 28 -3 52 -9 54 -5 3 -4 5 4 5 11 1 10 6 -5 23 -10 12 -14 18 -8 15
15 -9 14 45 -1 56 -6 4 -5 11 5 17 12 7 12 10 1 10 -7 0 -11 6 -7 15 3 8 0 15
-6 15 -6 0 -5 6 3 17 8 9 9 14 3 10 -7 -4 -14 2 -17 13 -3 12 -1 18 5 14 7 -4
7 0 0 12 -5 11 -8 27 -7 37 2 9 -1 17 -6 17 -5 0 -9 5 -9 11 0 5 4 8 8 5 5 -3
9 1 9 9 0 8 -7 17 -15 20 -12 4 -12 8 -1 22 8 10 9 14 2 10 -7 -5 -12 -1 -12
10 0 10 -2 27 -4 38 -2 11 0 26 6 33 7 9 6 11 -7 6 -18 -7 -19 15 -1 28 6 5 5
8 -2 8 -7 0 -13 10 -13 23 0 81 -4 107 -14 107 -6 0 -4 5 4 10 11 7 12 12 3
21 -6 6 -9 18 -6 25 3 8 -1 14 -8 14 -11 0 -11 3 1 10 12 7 12 10 1 10 -7 0
-11 6 -8 14 3 7 1 18 -5 24 -6 6 -6 12 0 16 13 8 3 46 -12 46 -6 0 -4 5 4 10
13 9 13 10 0 10 -13 0 -13 1 0 10 9 6 11 10 3 10 -7 0 -10 7 -6 16 3 9 0 20
-8 25 -8 5 -9 9 -3 9 11 0 11 24 0 52 -4 9 -5 22 -1 28 3 5 2 10 -2 10 -5 0
-8 13 -7 30 1 17 -1 30 -5 30 -4 0 -8 16 -9 35 -3 56 -5 64 -15 58 -5 -3 -7
10 -6 30 2 19 -2 41 -9 49 -9 11 -9 17 0 26 9 9 9 12 -1 12 -7 0 -11 6 -8 13
3 8 1 20 -3 27 -5 8 -4 22 1 32 7 12 6 18 -2 18 -6 0 -9 7 -5 15 3 8 0 15 -6
15 -7 0 -7 4 1 14 8 10 8 16 -2 24 -7 6 -12 29 -12 51 0 23 -3 41 -6 41 -9 0
-6 21 5 39 6 10 5 12 -2 7 -8 -4 -12 1 -13 13 -2 29 -3 34 -12 49 -5 7 -3 12
5 12 9 0 9 3 -2 10 -8 5 -11 10 -6 10 5 0 3 7 -4 15 -7 8 -10 22 -6 30 3 8 2
15 -2 15 -5 0 -9 11 -10 25 -1 14 -2 33 -3 43 -1 9 -7 23 -13 31 -8 11 -8 13
2 7 15 -9 16 6 0 22 -9 9 -9 12 1 12 8 0 7 5 -4 16 -12 12 -13 19 -5 24 9 6 9
9 1 15 -7 3 -9 15 -6 26 4 10 2 19 -3 19 -5 0 -8 23 -8 50 1 28 -1 50 -5 50
-3 0 -4 12 -1 26 3 18 1 25 -6 20 -7 -4 -8 3 -2 23 5 19 4 33 -3 40 -8 8 -7
11 4 11 12 0 12 2 0 9 -13 8 -13 12 0 27 9 11 9 15 2 10 -7 -4 -13 -3 -13 1 0
5 6 15 13 22 10 11 9 12 -1 6 -11 -6 -13 4 -10 48 1 30 0 53 -3 51 -4 -2 -10
3 -13 12 -3 9 -2 12 5 9 6 -5 9 11 6 44 -2 31 1 51 7 51 7 0 8 3 1 8 -16 12
-17 35 -1 29 8 -3 17 1 20 10 4 9 9 13 12 10 3 -3 16 -2 29 3 15 6 27 4 35 -3
10 -9 11 -9 6 1 -4 7 -2 13 6 13 7 1 24 3 38 4 14 1 33 5 42 9 9 4 22 5 28 1
6 -4 9 -1 8 6 -2 7 6 15 17 17 11 2 23 9 27 16 6 8 8 8 8 -1 0 -14 50 7 50 22
0 6 5 3 10 -5 8 -13 10 -12 10 3 0 10 4 15 10 12 5 -3 19 3 31 14 12 11 26 18
31 15 4 -3 8 0 8 6 0 6 5 8 10 5 6 -3 10 -1 10 6 0 7 3 9 6 6 4 -4 19 2 34 13
16 11 33 20 39 20 6 0 11 5 11 10 0 6 7 10 15 10 8 0 12 6 9 13 -3 8 4 13 18
14 13 1 24 7 26 13 2 5 8 8 13 5 5 -4 6 2 2 12 -3 10 -3 15 2 11 4 -4 14 0 22
10 9 10 12 11 7 2 -4 -9 -3 -12 2 -7 5 5 10 12 10 15 1 4 5 17 9 29 4 12 6 25
5 29 -1 4 4 11 12 15 10 7 10 9 -2 9 -13 0 -13 1 0 10 12 7 13 13 4 28 -8 11
-8 24 -3 34 6 11 4 18 -6 22 -8 3 -15 10 -15 16 0 6 6 8 13 4 11 -7 -8 19 -40
54 -7 7 -13 18 -13 23 0 6 -4 8 -9 4 -5 -3 -15 1 -23 8 -7 8 -19 12 -26 9 -6
-2 -12 1 -12 7 0 6 -7 8 -16 4 -9 -3 -20 0 -25 8 -7 11 -9 11 -9 1 0 -8 -5
-10 -12 -5 -20 12 -33 12 -52 -2z"/>
<path d="M3793 4245 c0 -8 4 -12 9 -9 5 3 6 10 3 15 -9 13 -12 11 -12 -6z"/>
<path d="M400 3990 c-9 -6 -10 -10 -3 -10 6 0 15 5 18 10 8 12 4 12 -15 0z"/>
<path d="M375 3960 c-3 -5 -1 -10 4 -10 6 0 11 5 11 10 0 6 -2 10 -4 10 -3 0
-8 -4 -11 -10z"/>
<path d="M3318 3439 c-10 -5 -44 -11 -77 -12 -33 -2 -63 -6 -67 -10 -4 -4 -14
-1 -22 6 -13 9 -14 9 -8 0 9 -16 -6 -17 -22 -1 -9 9 -13 8 -17 -3 -4 -10 -23
-14 -65 -14 -33 0 -60 -4 -60 -10 0 -5 -4 -4 -9 4 -7 11 -13 12 -23 4 -7 -6
-21 -9 -30 -8 -10 2 -18 -1 -18 -7 0 -6 -6 -8 -14 -5 -8 3 -26 -3 -39 -13 -13
-11 -26 -18 -28 -17 -2 2 -15 -8 -29 -22 -14 -13 -18 -21 -10 -17 8 4 6 0 -5
-9 -20 -16 -25 -34 -27 -87 0 -18 -4 -25 -12 -21 -6 3 0 -6 14 -22 14 -16 19
-25 13 -21 -7 4 -13 2 -13 -3 0 -6 5 -11 10 -11 6 0 10 -6 10 -14 0 -7 10 -20
23 -29 21 -13 33 -57 15 -57 -4 0 -5 -7 -2 -15 4 -8 1 -15 -4 -15 -6 0 -11 -8
-11 -17 -1 -41 -7 -64 -19 -72 -8 -5 -13 -11 -13 -15 1 -3 -2 -6 -6 -7 -5 0
-17 -9 -29 -20 -11 -10 -24 -16 -27 -12 -4 3 -7 -1 -7 -10 0 -9 -6 -16 -12
-14 -7 1 -13 -2 -12 -8 1 -10 -31 -45 -41 -45 -3 0 -5 -2 -5 -5 0 -6 -79 -86
-82 -83 -2 1 -13 -7 -26 -17 -12 -11 -26 -20 -30 -21 -4 0 -20 -6 -37 -13 -16
-7 -45 -14 -62 -15 -18 0 -33 -4 -33 -9 0 -4 -11 -5 -25 -3 -17 3 -23 1 -19
-6 5 -7 0 -9 -14 -6 -12 4 -22 3 -22 -1 0 -9 -114 -6 -129 4 -6 3 -11 0 -11
-7 0 -10 -3 -9 -10 2 -5 8 -12 11 -16 7 -8 -8 -41 27 -49 53 -3 10 -12 21 -20
24 -8 3 -12 12 -9 21 3 8 1 15 -6 15 -6 0 -8 5 -5 10 3 6 1 10 -4 10 -6 0 -11
6 -11 14 0 7 -7 19 -15 26 -8 7 -13 16 -10 20 3 4 -2 13 -10 20 -16 14 -21 45
-5 35 6 -4 7 1 3 11 -5 13 -2 16 9 11 12 -4 14 -1 11 14 -4 13 0 19 11 19 9 0
16 8 16 20 0 11 6 20 13 20 8 0 7 4 -3 10 -13 9 -13 10 0 10 13 0 13 1 0 10
-8 5 -10 10 -5 10 6 0 12 11 13 25 1 14 -3 25 -9 25 -5 0 -7 5 -4 10 3 6 2 10
-3 10 -6 0 -8 9 -5 20 3 12 1 20 -5 18 -5 -2 -10 1 -11 5 -1 11 -28 37 -39 37
-6 0 -12 6 -15 14 -4 9 -14 12 -28 9 -13 -4 -20 -2 -16 4 7 11 -22 11 -41 -1
-7 -4 -12 -2 -12 5 0 8 -4 8 -15 -1 -8 -7 -26 -10 -40 -8 -13 3 -22 1 -19 -3
3 -5 0 -10 -5 -10 -12 -2 -26 -5 -38 -9 -5 -1 -12 -2 -16 -1 -4 1 -17 -3 -27
-9 -15 -8 -20 -8 -20 2 0 10 -3 10 -9 -1 -5 -8 -16 -11 -26 -8 -10 5 -14 3 -9
-5 5 -7 -1 -9 -20 -6 -14 3 -30 0 -34 -6 -4 -6 -16 -12 -27 -13 -11 -1 -27 -4
-35 -6 -8 -3 -25 -8 -37 -12 -13 -4 -23 -11 -23 -16 0 -5 -6 -6 -14 -3 -7 3
-16 -2 -20 -11 -3 -9 -10 -13 -16 -10 -5 3 -10 2 -10 -3 0 -5 -24 -21 -52 -36
-29 -14 -49 -26 -44 -26 5 0 -7 -15 -26 -33 -19 -18 -33 -38 -30 -45 2 -7 -1
-19 -8 -27 -6 -8 -9 -18 -6 -23 3 -5 -1 -20 -9 -35 -9 -17 -10 -27 -3 -27 7 0
7 -4 -1 -13 -6 -8 -8 -17 -4 -20 11 -11 10 -57 -2 -57 -6 0 -6 -3 1 -8 6 -4
17 -28 25 -54 7 -27 17 -48 22 -48 5 0 6 -7 3 -15 -3 -9 1 -18 9 -21 8 -4 15
-15 15 -25 0 -10 3 -19 8 -19 4 0 13 -9 20 -21 8 -12 9 -18 3 -15 -7 4 -8 1
-5 -8 3 -9 11 -16 17 -16 6 0 7 -3 4 -6 -4 -4 1 -14 11 -23 9 -9 19 -25 20
-36 2 -11 9 -23 15 -27 7 -4 8 -8 3 -8 -5 0 -1 -10 10 -22 10 -12 13 -18 7
-14 -17 9 -17 1 0 -16 24 -25 51 -73 49 -85 -2 -7 2 -13 8 -13 5 0 10 -9 10
-19 0 -11 9 -26 20 -34 11 -8 17 -17 13 -20 -3 -4 2 -16 12 -27 10 -11 15 -20
11 -20 -4 0 4 -10 17 -22 13 -13 22 -29 20 -35 -3 -7 1 -13 7 -13 7 0 10 -7 6
-16 -3 -8 -2 -12 4 -9 6 3 10 1 10 -5 0 -6 5 -8 10 -5 5 3 10 -1 10 -9 0 -9 5
-16 11 -16 5 0 7 -4 4 -10 -3 -5 0 -7 8 -4 9 3 22 -4 31 -18 9 -12 16 -17 16
-10 0 10 4 9 16 -2 8 -9 20 -14 25 -10 5 3 8 0 7 -8 -2 -7 3 -12 10 -10 6 1
12 -2 12 -8 0 -6 3 -9 8 -8 19 4 61 -15 55 -26 -4 -6 0 -5 9 2 11 9 18 10 23
2 4 -6 14 -9 23 -8 10 2 16 -3 14 -11 -3 -12 0 -12 12 -1 9 7 16 8 16 3 0 -5
7 -10 15 -11 8 -1 22 -3 30 -4 8 -1 15 -6 15 -11 0 -5 8 -3 17 4 11 10 14 10
9 2 -5 -9 0 -13 14 -13 13 0 19 -4 14 -11 -4 -8 0 -8 15 0 20 11 25 8 22 -12
-1 -5 4 -5 10 -1 18 11 79 10 79 -1 0 -5 5 -3 10 5 5 8 10 10 10 4 0 -7 17 -8
50 -4 32 4 50 3 50 -4 0 -6 4 -6 11 1 6 6 17 9 24 7 7 -3 16 -1 20 5 4 8 12 8
25 1 12 -6 21 -7 25 0 3 5 12 7 20 3 8 -3 15 -1 15 5 0 5 12 8 27 6 15 -1 33
2 40 8 10 8 13 7 13 -3 0 -12 2 -12 9 0 5 7 14 10 20 7 6 -4 11 -3 11 2 0 5
15 9 33 10 17 0 43 3 57 6 14 3 32 7 40 8 8 2 21 8 29 12 11 7 12 6 6 -5 -7
-12 -6 -12 7 -1 9 7 20 12 24 11 5 -1 11 0 14 1 17 6 49 12 72 13 15 1 25 4
22 8 -5 9 25 21 37 13 5 -3 9 0 9 5 0 6 8 11 18 11 10 0 28 7 40 16 12 8 22
12 22 8 0 -4 7 1 16 12 8 10 12 13 8 5 -4 -8 9 -2 29 13 20 15 39 28 44 28 18
0 61 32 56 41 -3 6 -1 7 5 3 6 -4 19 2 29 13 9 11 21 17 26 14 6 -4 8 0 4 10
-4 11 -2 14 8 10 8 -3 18 2 21 11 3 9 13 16 21 16 8 0 11 5 7 12 -5 8 -2 9 10
5 9 -4 15 -3 12 2 -8 12 21 34 33 26 6 -3 8 0 5 8 -3 8 8 24 25 38 17 13 31
30 31 38 0 8 6 11 15 7 10 -4 15 -1 13 9 -2 7 6 21 17 30 11 9 13 13 5 9 -8
-5 -4 6 10 23 14 17 29 28 34 25 5 -2 7 1 4 9 -2 7 3 21 11 31 9 10 16 24 16
31 1 7 6 11 13 10 6 -2 9 4 6 12 -4 8 -1 15 6 15 6 0 8 5 5 10 -3 6 -2 10 4
10 6 0 8 7 5 15 -4 8 -1 15 7 15 7 0 10 3 6 6 -3 4 1 13 9 21 8 9 13 20 11 27
-2 6 2 17 10 24 7 8 11 18 8 23 -4 5 -2 9 2 9 5 0 9 8 9 18 2 25 13 77 23 104
4 13 7 31 6 41 -2 9 1 17 6 17 5 0 8 3 8 8 -1 4 0 9 1 12 7 19 5 50 -4 50 -7
0 -7 3 1 8 10 6 20 82 27 202 1 14 5 31 9 38 5 7 3 12 -5 12 -9 0 -9 3 2 10
10 6 11 10 3 10 -7 0 -13 5 -13 11 0 5 6 7 13 3 9 -6 9 -5 0 7 -10 12 -10 18
-1 27 7 7 8 12 2 12 -5 0 -9 20 -9 45 1 25 -2 45 -6 45 -4 0 -6 11 -5 25 2 13
0 22 -5 20 -4 -3 -13 0 -19 7 -6 7 -19 24 -30 37 -11 13 -20 18 -20 11 0 -7
-9 -2 -21 11 -11 13 -18 17 -14 9 4 -10 2 -9 -8 2 -8 10 -17 15 -20 11 -4 -3
-7 -1 -7 6 0 7 -4 9 -10 6 -5 -3 -10 -2 -10 4 0 5 -9 8 -20 6 -11 -2 -20 0
-20 5 0 9 -26 8 -36 -3 -4 -3 -14 -2 -23 3 -10 5 -23 4 -33 -1z"/>
</g>
</svg>
