<?xml version="1.0" standalone="no"?>
<!DOCTYPE svg PUBLIC "-//W3C//DTD SVG 20010904//EN"
        "http://www.w3.org/TR/2001/REC-SVG-20010904/DTD/svg10.dtd">
<svg version="1.0" xmlns="http://www.w3.org/2000/svg"
     width="512.000000pt" height="512.000000pt" viewBox="0 0 512.000000 512.000000"
     preserveAspectRatio="xMidYMid meet">
    <metadata>
        Created by potrace 1.14, written by Peter Selinger 2001-2017
    </metadata>
    <g transform="translate(0.000000,512.000000) scale(0.100000,-0.100000)"
       fill="#000000" stroke="none">
        <path d="M1280 3840 l-1280 -1280 506 -505 507 -505 159 160 160 161 -346 344
-346 345 960 960 960 960 346 -345 347 -345 159 160 160 160 -506 505 -506
505 -1280 -1280z"/>
        <path d="M1919 3212 c-344 -345 -629 -633 -633 -640 -5 -8 201 -220 633 -652
353 -352 644 -640 647 -640 13 0 1266 1260 1263 1269 -3 9 -1210 1223 -1267
1274 -16 14 -66 -33 -643 -611z m637 -533 c3 -459 6 -887 7 -952 1 -65 0 -120
-2 -123 -5 -5 -961 952 -961 961 0 8 944 955 947 951 2 -2 6 -378 9 -837z"/>
        <path d="M3947 3409 l-159 -160 346 -344 346 -345 -478 -478 c-262 -262 -694
-694 -959 -959 l-483 -483 -346 345 -347 345 -159 -160 -160 -160 249 -249
c136 -136 364 -363 505 -505 l258 -256 1280 1280 1280 1280 -489 488 c-268
268 -497 494 -507 504 -18 15 -26 9 -177 -143z"/>
    </g>
</svg>
