<svg width="24" height="24" viewBox="0 0 24 24" fill="none" xmlns="http://www.w3.org/2000/svg">
<path d="M3 2.3151C3 1.85534 3.56826 1.63929 3.8737 1.98292L5.66304 3.99593C6.40009 4.8251 7.67119 4.89593 8.49579 4.15379L11.6655 1.30103C11.8557 1.1299 12.1443 1.1299 12.3345 1.30103L15.5042 4.15379C16.3288 4.89593 17.5999 4.8251 18.337 3.99593L20.1263 1.98292C20.4317 1.63929 21 1.85534 21 2.3151V13.2863C21 16.9494 18.7799 20.247 15.386 21.6251V21.6251C13.2147 22.5067 10.7853 22.5067 8.61401 21.6251V21.6251C5.22008 20.247 3 16.9494 3 13.2863V2.3151Z" fill="url(#paint0_linear_32_2)"/>
<defs>
<linearGradient id="paint0_linear_32_2" x1="12" y1="2.53488" x2="12" y2="23" gradientUnits="userSpaceOnUse">
<stop stop-color="#1B96CA"/>
<stop offset="1" stop-color="#2260A5"/>
</linearGradient>
</defs>
</svg>
