<svg width="32" height="32" viewBox="0 0 32 32" fill="none" xmlns="http://www.w3.org/2000/svg">
<g clip-path="url(#clip0_635_393)">
<path d="M15.3388 2.90217C15.5567 2.27528 16.4433 2.27528 16.6612 2.90217L19.6019 11.3622C19.698 11.6387 19.9561 11.8263 20.2488 11.8322L29.2035 12.0147C29.8671 12.0282 30.141 12.8714 29.6122 13.2724L22.4749 18.6834C22.2416 18.8603 22.143 19.1637 22.2278 19.4439L24.8214 28.0167C25.0136 28.652 24.2963 29.1731 23.7516 28.794L16.3998 23.6782C16.1595 23.511 15.8405 23.511 15.6002 23.6782L8.24842 28.794C7.70365 29.1731 6.9864 28.652 7.17859 28.0167L9.77219 19.4439C9.85697 19.1637 9.75839 18.8603 9.52508 18.6834L2.38785 13.2724C1.85897 12.8714 2.13294 12.0282 2.79649 12.0147L11.7512 11.8322C12.0439 11.8263 12.302 11.6387 12.3981 11.3622L15.3388 2.90217Z" fill="url(#paint0_linear_635_393)"/>
</g>
<defs>
<linearGradient id="paint0_linear_635_393" x1="16" y1="1" x2="16" y2="33" gradientUnits="userSpaceOnUse">
<stop stop-color="#E3E6E6"/>
<stop offset="1" stop-color="#E3E3E3"/>
</linearGradient>
<clipPath id="clip0_635_393">
<rect width="32" height="32" fill="white"/>
</clipPath>
</defs>
</svg>
