<?xml version="1.0" standalone="no"?>
<!DOCTYPE svg PUBLIC "-//W3C//DTD SVG 20010904//EN"
 "http://www.w3.org/TR/2001/REC-SVG-20010904/DTD/svg10.dtd">
<svg version="1.0" xmlns="http://www.w3.org/2000/svg"
 width="484.000000pt" height="484.000000pt" viewBox="0 0 484.000000 484.000000"
 preserveAspectRatio="xMidYMid meet">
<metadata>
Created by potrace 1.14, written by Peter Selinger 2001-2017
</metadata>
<g transform="translate(0.000000,484.000000) scale(0.100000,-0.100000)"
fill="#000000" stroke="none">
<path d="M2252 4675 l-164 -165 -424 0 -424 0 0 -423 0 -422 -230 -230 -230
-230 0 653 0 652 -235 0 -235 0 0 -887 0 -887 -148 -148 c-81 -82 -149 -151
-151 -153 -2 -3 64 -73 147 -155 l152 -151 0 -904 0 -905 235 0 235 0 0 667 0
668 230 -230 230 -230 0 -437 0 -438 438 0 438 0 149 -150 c82 -82 150 -150
153 -150 2 0 72 68 154 150 l151 150 423 0 424 0 0 423 0 422 230 230 230 230
0 -653 0 -652 235 0 235 0 0 889 c0 489 3 891 8 893 4 2 79 76 166 165 l159
161 -166 167 -167 167 0 874 0 874 -235 0 -235 0 0 -637 0 -638 -230 230 -230
230 0 407 0 408 -408 0 -407 0 -165 165 c-91 91 -167 165 -170 165 -3 -1 -79
-75 -168 -165z m378 -1670 l0 -265 48 37 c26 20 76 50 112 67 59 28 74 31 165
31 89 0 106 -3 156 -28 67 -32 127 -94 164 -168 37 -72 52 -128 66 -239 39
-323 -92 -598 -320 -670 -109 -35 -249 -21 -348 35 l-43 24 -6 -25 c-6 -23
-10 -24 -90 -24 l-84 0 0 745 0 745 90 0 90 0 0 -265z m-575 -140 c39 -8 96
-24 128 -36 l57 -21 0 -99 c0 -55 -2 -99 -4 -99 -2 0 -30 16 -62 35 -126 76
-252 101 -355 71 -31 -8 -68 -25 -82 -36 -32 -25 -50 -87 -41 -136 14 -74 65
-101 308 -158 143 -33 202 -71 242 -153 25 -49 29 -70 29 -138 0 -67 -5 -89
-28 -137 -68 -138 -217 -207 -427 -195 -92 5 -224 38 -292 73 -28 14 -28 16
-28 114 0 55 3 100 6 100 3 0 24 -13 47 -29 183 -125 403 -147 500 -51 33 34
37 43 37 89 0 64 -20 106 -62 127 -17 9 -100 33 -185 55 -167 41 -224 68 -272
126 -88 107 -80 284 18 396 87 98 280 141 466 102z"/>
<path d="M2825 2696 c-49 -16 -97 -40 -152 -78 l-43 -29 0 -308 0 -309 48 -20
c191 -82 365 -38 435 111 68 142 62 411 -11 541 -52 91 -163 128 -277 92z"/>
</g>
</svg>
