<svg xmlns="http://www.w3.org/2000/svg" fill-rule="evenodd" stroke-linejoin="round" stroke-width="28.222" preserveAspectRatio="xMidYMid" version="1.2" viewBox="0 0 1984.4 1243.5"><defs/><defs class="ClipPathGroup"><clipPath id="a"><path d="M0 0h21590v27940H0z"/></clipPath></defs><g class="SlideGroup"><g class="Slide" clip-path="url(#a)"><g class="Page"><g class="com.sun.star.drawing.CustomShape"><path fill="none" d="M0-1h2002v1253H0z" class="BoundingBox"/><path fill="#15549a" d="M208 0c-36 0-72 10-104 28-31 18-58 45-76 76-18 32-28 68-28 105v834c0 36 10 72 28 104 18 31 45 58 76 76 32 18 68 28 104 28h1585c36 0 72-10 104-28 31-18 58-45 76-76 18-32 28-68 28-104V208v1c0-37-10-73-28-105-18-31-45-58-76-76-32-18-68-28-104-28z"/><path fill="none" d="M500 250h252v252H500z" class="BoundingBox"/><path fill="#ddd" d="M751 376c0 22-6 43-17 62s-27 35-46 46-40 17-62 17c-23 0-44-6-63-17s-35-27-46-46-17-40-17-62c0-23 6-44 17-63s27-35 46-46 40-17 63-17c22 0 43 6 62 17s35 27 46 46 17 40 17 63z"/><path fill="none" d="M1250 250h252v252h-252z" class="BoundingBox"/><path fill="#ddd" d="M1501 376c0 22-6 43-17 62s-27 35-46 46-40 17-62 17c-23 0-44-6-63-17s-35-27-46-46-17-40-17-62c0-23 6-44 17-63s27-35 46-46 40-17 63-17c22 0 43 6 62 17s35 27 46 46 17 40 17 63z"/></g><g fill="none"><path d="M420 670h1161v411H420z" class="BoundingBox"/><path stroke="#ddd" stroke-linecap="round" stroke-width="159" d="M500 1000l1000-250"/></g></g></g></g></svg>