<svg width="724" height="724" viewBox="0 0 724 724" fill="none" xmlns="http://www.w3.org/2000/svg">
<g clip-path="url(#clip0_13_33)">
<circle cx="362" cy="181" r="181" fill="#9D43E3"/>
<circle cx="362" cy="543" r="181" fill="#2EEA57"/>
<circle cx="181" cy="361" r="181" fill="#F12B2B"/>
<circle cx="543" cy="362" r="181" fill="#2186FE"/>
<path d="M362 362C362 461.964 280.964 543 181 543C181 443.036 262.036 362 362 362Z" fill="#2B270F"/>
<path d="M543 181C543 280.964 461.964 362 362 362C362 262.036 443.036 181 543 181Z" fill="#2124CF"/>
<path d="M543 543C443.036 543 362 461.964 362 362C461.964 362 543 443.036 543 543Z" fill="#0A7D4F"/>
<path d="M362 362C262.036 362 181 280.964 181 181C280.964 181 362 262.036 362 362Z" fill="#940B26"/>
</g>
<defs>
<clipPath id="clip0_13_33">
<rect width="724" height="724" fill="white"/>
</clipPath>
</defs>
</svg>
