<svg width="2515" height="630" viewBox="0 0 2515 630" fill="none" xmlns="http://www.w3.org/2000/svg">
<g clip-path="url(#clip0_679_429)">
<g clip-path="url(#clip1_679_429)">
<g style="mix-blend-mode:multiply">
<circle cx="2092" cy="314.998" r="128" transform="rotate(-90 2092 314.998)" fill="url(#paint0_linear_679_429)"/>
</g>
<g style="mix-blend-mode:multiply">
<circle cx="2220.01" cy="443" r="128" transform="rotate(-90 2220.01 443)" fill="url(#paint1_linear_679_429)"/>
</g>
<g style="mix-blend-mode:multiply">
<circle cx="2220.01" cy="187" r="128" transform="rotate(-90 2220.01 187)" fill="url(#paint2_linear_679_429)"/>
</g>
<g style="mix-blend-mode:multiply">
<circle cx="2348" cy="315" r="128" transform="rotate(-90 2348 315)" fill="url(#paint3_linear_679_429)"/>
</g>
</g>
</g>
<path d="M61.8875 482.935C75.5861 509.255 96.3555 531.231 121.859 546.39C147.611 561.788 177.723 569.488 212.194 569.49C237.862 569.867 263.331 564.936 287.005 555.007C308.911 545.645 328.29 531.229 343.557 512.938C359.353 493.732 370.342 471.035 375.613 446.73H281.154C276.64 460.981 267.702 473.421 255.639 482.245C244.147 490.293 229.438 494.317 211.51 494.317C192.664 494.315 177.265 489.601 165.314 480.176C153.045 470.308 143.837 457.152 138.764 442.244C132.875 425.523 129.959 407.899 130.149 390.172C129.959 372.446 132.875 354.824 138.764 338.105C143.891 323.129 153.084 309.876 165.314 299.829C177.263 290.173 192.661 285.346 211.507 285.346C230.354 285.346 245.639 290.058 257.363 299.484C268.577 308.18 276.876 320.089 281.151 333.622H375.61C365.509 293.162 346.093 262.587 317.362 241.897C288.63 221.207 253.579 210.862 212.209 210.862C177.266 210.86 146.924 218.56 121.182 233.963C95.6542 249.135 74.9683 271.257 61.5397 297.748C47.5198 324.883 40.5098 355.691 40.5098 390.172C40.5098 425.117 47.6357 456.038 61.8875 482.935Z" fill="black"/>
<path d="M1633 490.038V561.073H1887.44V488.659H1732.99L1885.37 289.346V219H1633.71V290.722H1784.69L1633 490.038Z" fill="black"/>
<path d="M1495.37 561.212H1583.6H1583.63V219.286C1569.74 224.026 1560.93 229.471 1539.5 229.471C1518.11 229.471 1509.32 223.978 1495.37 219.138V561.212Z" fill="black"/>
<path d="M1191.28 490.176V561.212H1445.72V488.797H1291.27L1443.66 289.484V219.138H1191.99V290.86H1342.97L1191.28 490.176Z" fill="black"/>
<path d="M670.014 371.554V561.211H757.596V359.83C757.598 311.553 744.957 274.656 719.673 249.138C694.389 223.621 661.982 210.862 622.453 210.862C601.752 210.955 581.265 215.054 562.121 222.931C543.066 230.263 526.46 242.81 514.2 259.139V78.4465H426.633V561.211H514.2V371.554C514.204 345.806 520.985 325.001 534.544 309.139C548.102 293.277 567.522 285.346 592.804 285.346C618.068 285.35 637.252 293.282 650.357 309.142C663.461 325.002 670.014 345.806 670.014 371.554Z" fill="black"/>
<path fill-rule="evenodd" clip-rule="evenodd" d="M862.406 557.073C845.389 549.177 830.761 536.925 820.001 521.556C808.979 505.434 803.309 486.252 803.794 466.727C803.794 441.44 810 420.75 822.411 404.658C835.68 387.957 853.534 375.493 873.782 368.795C897.402 360.687 922.245 356.72 947.215 357.071H1028.56C1028.98 343.597 1026.51 330.19 1021.32 317.748C1016.87 307.595 1009.41 299.05 999.95 293.265C989.366 287.218 977.309 284.234 965.127 284.644C950.076 284.383 935.218 288.069 922.033 295.334C909.39 302.46 901.69 314.3 898.934 330.852H810.693C812.454 307.373 821.356 284.995 836.204 266.725C851.349 248.472 870.778 234.255 892.756 225.345C916.131 215.611 941.226 210.685 966.545 210.862C998.722 210.862 1025.96 216.838 1048.25 228.79C1070.02 240.223 1087.9 257.866 1099.62 279.481C1111.57 301.32 1117.55 327.182 1117.55 357.068V461.21C1118.47 471.323 1122.14 478.22 1128.58 481.9C1136.47 485.911 1145.26 487.811 1154.09 487.414V561.22C1135.85 561.627 1117.64 559.539 1099.96 555.013C1086.92 551.624 1074.79 545.382 1064.45 536.737C1054.78 528.07 1046.83 517.657 1041.01 506.044C1030.43 523.976 1014 539.034 991.715 551.22C969.418 563.405 944.38 569.695 918.972 569.496C899.424 569.65 880.092 565.404 862.406 557.073ZM901.692 431.899C907.674 425.396 915.302 420.63 923.769 418.106C933.119 415.095 942.887 413.58 952.71 413.623H1028.56V416.382C1028.83 431.465 1024.77 446.31 1016.83 459.141C1009.29 471.296 998.718 481.279 986.151 488.107C973.35 495.044 958.993 498.604 944.436 498.452C931.635 498.861 919.012 495.372 908.237 488.449C898.358 481.782 893.418 471.323 893.418 457.072C892.927 447.941 895.88 438.958 901.692 431.899Z" fill="black"/>
<path d="M1539.5 174.997C1531.98 175.086 1524.52 173.633 1517.59 170.727C1510.65 167.821 1504.38 163.523 1499.17 158.1C1493.75 152.888 1489.45 146.62 1486.55 139.683C1483.64 132.746 1482.19 125.287 1482.28 117.767C1482.12 110.184 1483.54 102.651 1486.45 95.6468C1489.36 88.6422 1493.69 82.3185 1499.17 77.0763C1504.43 71.7435 1510.72 67.5286 1517.65 64.6844C1524.58 61.8402 1532.01 60.4253 1539.5 60.5244C1547.06 60.358 1554.56 61.7408 1561.56 64.5875C1568.55 67.4343 1574.89 71.6846 1580.19 77.0763C1585.58 82.3687 1589.83 88.7095 1592.67 95.7077C1595.52 102.706 1596.9 110.213 1596.73 117.767C1596.83 125.259 1595.42 132.695 1592.57 139.628C1589.73 146.561 1585.52 152.848 1580.19 158.112C1574.94 163.591 1568.62 167.921 1561.62 170.827C1554.61 173.734 1547.08 175.154 1539.5 174.997Z" fill="black"/>
<defs>
<linearGradient id="paint0_linear_679_429" x1="2220" y1="314.998" x2="1964" y2="314.998" gradientUnits="userSpaceOnUse">
<stop stop-color="#F12B2B"/>
<stop offset="1" stop-color="#B01F1F"/>
</linearGradient>
<linearGradient id="paint1_linear_679_429" x1="2348.01" y1="443" x2="2092.01" y2="443" gradientUnits="userSpaceOnUse">
<stop stop-color="#2EEA57"/>
<stop offset="1" stop-color="#27AC44"/>
</linearGradient>
<linearGradient id="paint2_linear_679_429" x1="2348.01" y1="187" x2="2092.01" y2="187" gradientUnits="userSpaceOnUse">
<stop stop-color="#9D43E3"/>
<stop offset="1" stop-color="#6A2E99"/>
</linearGradient>
<linearGradient id="paint3_linear_679_429" x1="2476" y1="315" x2="2220" y2="315" gradientUnits="userSpaceOnUse">
<stop stop-color="#3688E9"/>
<stop offset="1" stop-color="#204EC4"/>
</linearGradient>
<clipPath id="clip0_679_429">
<rect width="512" height="512" fill="white" transform="translate(1964 59)"/>
</clipPath>
<clipPath id="clip1_679_429">
<rect width="512" height="512" fill="white" transform="translate(1964 59)"/>
</clipPath>
</defs>
</svg>
