<svg width="934" height="225" viewBox="0 0 934 225" fill="none" xmlns="http://www.w3.org/2000/svg">
<g clip-path="url(#clip0_556_274)">
<g style="mix-blend-mode:multiply">
<circle cx="777" cy="112" r="50.0001" transform="rotate(-90 777 112)" fill="#F12B2B"/>
</g>
<g style="mix-blend-mode:multiply">
<circle cx="827.002" cy="162" r="50.0001" transform="rotate(-90 827.002 162)" fill="#2EEA57"/>
</g>
<g style="mix-blend-mode:multiply">
<circle cx="827.002" cy="62.0001" r="50.0001" transform="rotate(-90 827.002 62.0001)" fill="#9D43E3"/>
</g>
<g style="mix-blend-mode:multiply">
<circle cx="877" cy="112" r="50.0001" transform="rotate(-90 877 112)" fill="#3688E9"/>
</g>
</g>
<g clip-path="url(#clip1_556_274)">
<path d="M312.63 206.832C306.314 203.902 300.885 199.355 296.891 193.652C292.799 187.669 290.695 180.551 290.875 173.305C290.875 163.921 293.178 156.243 297.785 150.271C302.71 144.074 309.337 139.449 316.853 136.963C325.62 133.954 334.841 132.482 344.11 132.612H374.305C374.459 127.612 373.543 122.637 371.618 118.02C369.963 114.252 367.194 111.081 363.684 108.934C359.755 106.691 355.28 105.583 350.758 105.735C345.172 105.638 339.657 107.006 334.763 109.702C330.07 112.347 327.212 116.74 326.189 122.882H293.436C294.089 114.17 297.394 105.865 302.905 99.0855C308.526 92.3119 315.738 87.0362 323.896 83.7297C332.572 80.1174 341.887 78.2895 351.285 78.3551C363.228 78.3551 373.337 80.5728 381.612 85.0082C389.691 89.2508 396.328 95.7981 400.679 103.819C405.115 111.923 407.333 121.521 407.333 132.611V171.258C407.675 175.011 409.04 177.57 411.428 178.936C414.356 180.424 417.618 181.129 420.899 180.982V208.371C414.128 208.522 407.367 207.747 400.806 206.068C395.965 204.81 391.463 202.493 387.626 199.285C384.036 196.069 381.084 192.205 378.924 187.895C374.999 194.55 368.9 200.138 360.627 204.66C352.351 209.182 343.057 211.516 333.627 211.442C326.371 211.499 319.195 209.923 312.63 206.832ZM335.407 155.262C332.264 156.199 329.433 157.967 327.213 160.381C325.055 163 323.959 166.334 324.142 169.722C324.142 175.011 325.975 178.892 329.642 181.366C333.641 183.935 338.327 185.23 343.078 185.078C348.482 185.134 353.811 183.813 358.562 181.239C363.227 178.705 367.152 175.001 369.951 170.49C372.895 165.728 374.405 160.22 374.302 154.622V153.599H346.149C342.503 153.582 338.878 154.145 335.407 155.262ZM37.7558 202.867C28.2893 197.242 20.5801 189.087 15.4955 179.32C10.2055 169.338 7.56055 157.864 7.56055 144.896C7.56055 132.1 10.1625 120.667 15.3664 110.598C20.3508 100.767 28.029 92.5578 37.5044 86.9277C47.0591 81.2119 58.3215 78.3544 71.2916 78.3551C86.6474 78.3551 99.6576 82.1941 110.322 89.872C120.987 97.5499 128.193 108.896 131.943 123.911H96.8813C95.2944 118.888 92.2144 114.469 88.0517 111.242C83.7001 107.744 78.0266 105.996 71.0312 105.996C64.0358 105.996 58.3204 107.787 53.885 111.37C49.3456 115.098 45.9334 120.017 44.0306 125.574C41.8447 131.779 40.7623 138.318 40.8326 144.896C40.7622 151.474 41.8445 158.014 44.0306 164.22C45.9133 169.752 49.3312 174.634 53.885 178.296C58.3211 181.794 64.0369 183.543 71.0323 183.543C77.6865 183.543 83.1463 182.05 87.4118 179.064C91.8896 175.789 95.207 171.173 96.8824 165.884H131.944C129.987 174.904 125.908 183.326 120.045 190.454C114.378 197.241 107.185 202.591 99.0544 206.065C90.2671 209.75 80.8135 211.58 71.286 211.44C58.491 211.439 47.3143 208.582 37.7558 202.867ZM604.896 208.368V182.007L661.201 108.042H605.158V81.4263H698.572V107.531L642.011 181.495H699.339V208.368H604.896ZM580.323 208.368H547.574V81.4263C552.751 83.2223 556.015 85.2607 563.954 85.2607C571.909 85.2607 575.179 83.2402 580.333 81.4813V208.368H580.323ZM434.702 208.368V182.007L491.007 108.042H434.964V81.4263H528.378V107.531L471.818 181.495H529.146V208.368H434.702ZM241.219 208.368V137.987C241.219 128.432 238.787 120.712 233.923 114.826C229.059 108.941 221.938 105.997 212.561 105.996C203.176 105.996 195.968 108.939 190.936 114.825C185.903 120.712 183.386 128.432 183.385 137.987V208.368H150.881V29.2166H183.385V96.2702C187.935 90.2108 194.099 85.5545 201.172 82.8339C208.278 79.9106 215.882 78.3897 223.566 78.3551C238.238 78.3551 250.267 83.0898 259.652 92.5592C269.037 102.029 273.729 115.721 273.728 133.636V208.368H241.219Z" fill="black"/>
<path d="M563.954 65.0457C561.163 65.079 558.394 64.5397 555.819 63.4613C553.244 62.3829 550.917 60.7881 548.983 58.7754C546.97 56.8412 545.376 54.5152 544.298 51.941C543.219 49.3667 542.68 46.5988 542.712 43.808C542.655 40.994 543.182 38.1988 544.262 35.5995C545.341 33.0001 546.949 30.6534 548.983 28.7081C550.936 26.7291 553.269 25.165 555.842 24.1095C558.415 23.0541 561.174 22.529 563.954 22.5658C566.757 22.504 569.543 23.0172 572.14 24.0736C574.737 25.13 577.09 26.7073 579.054 28.7081C581.055 30.672 582.632 33.0251 583.689 35.6221C584.745 38.2191 585.258 41.005 585.197 43.808C585.233 46.5885 584.708 49.3479 583.653 51.9205C582.597 54.4932 581.033 56.8263 579.054 58.7799C577.109 60.8131 574.762 62.4199 572.162 63.4985C569.563 64.5771 566.768 65.104 563.954 65.0457Z" fill="black"/>
</g>
<defs>
<clipPath id="clip0_556_274">
<rect width="200" height="200" fill="white" transform="translate(727 12)"/>
</clipPath>
<clipPath id="clip1_556_274">
<rect width="692.901" height="190" fill="white" transform="translate(7 22)"/>
</clipPath>
</defs>
</svg>
