<svg width="119" height="48" viewBox="0 0 119 48" fill="none" xmlns="http://www.w3.org/2000/svg">
<rect x="49" y="3" width="67" height="40" rx="5" fill="#005EBD"/>
<path d="M18.4487 19.2734C18.4487 20.1891 18.2835 21.0576 17.9531 21.8789C17.6322 22.6908 17.1838 23.3846 16.6079 23.9604C15.881 24.6779 15.0267 25.2207 14.0449 25.5889C13.0632 25.957 11.8218 26.1411 10.3208 26.1411H7.94189V34H5.13818V12.9155H10.4341C11.6802 12.9155 12.7422 13.0194 13.6201 13.2271C14.498 13.4347 15.2721 13.7699 15.9424 14.2324C16.7259 14.7705 17.3395 15.4549 17.7832 16.2856C18.2269 17.1069 18.4487 18.1029 18.4487 19.2734ZM15.5317 19.3442C15.5317 18.6174 15.4043 17.9849 15.1494 17.4468C14.904 16.9087 14.5264 16.4697 14.0166 16.1299C13.5729 15.8372 13.0537 15.6296 12.459 15.5068C11.8737 15.3841 11.1421 15.3228 10.2642 15.3228H7.94189V23.748H9.85352C10.9863 23.748 11.902 23.6584 12.6006 23.479C13.2992 23.2902 13.8797 22.9598 14.3423 22.4878C14.7576 22.063 15.0597 21.6004 15.2485 21.1001C15.4373 20.5998 15.5317 20.0145 15.5317 19.3442ZM33.6499 26.0986C33.6499 28.7607 33.008 30.8187 31.7242 32.2725C30.4403 33.7168 28.7316 34.439 26.5982 34.439C24.3986 34.439 22.6664 33.6932 21.4014 32.2017C20.1459 30.7007 19.5181 28.6663 19.5181 26.0986C19.5181 23.4554 20.1648 21.4022 21.458 19.939C22.7608 18.4757 24.4742 17.7441 26.5982 17.7441C28.7316 17.7441 30.4403 18.4757 31.7242 19.939C33.008 21.3927 33.6499 23.446 33.6499 26.0986ZM30.9029 26.0986C30.9029 24.0501 30.53 22.5303 29.7842 21.5391C29.0385 20.5384 27.9764 20.0381 26.5982 20.0381C25.2105 20.0381 24.139 20.5384 23.3838 21.5391C22.6381 22.5303 22.2652 24.0501 22.2652 26.0986C22.2652 28.0811 22.6381 29.5868 23.3838 30.6157C24.139 31.6353 25.2105 32.145 26.5982 32.145C27.967 32.145 29.0243 31.6447 29.7701 30.644C30.5253 29.634 30.9029 28.1188 30.9029 26.0986ZM49.2052 34H45.7076L39.8028 26.3677L38.755 27.3872V34H36.0929V11.9668H38.755V24.8667L45.0138 18.1831H48.3272L41.8277 24.7959L49.2052 34Z" fill="white"/>
<path d="M58.0659 34V15.4077H50.9858V12.9155H67.9497V15.4077H60.8696V34H58.0659ZM78.7007 34H76.0386V32.2441C75.2173 32.9616 74.4385 33.5091 73.7021 33.8867C72.9658 34.2549 72.1445 34.439 71.2383 34.439C70.5491 34.439 69.8978 34.3257 69.2842 34.0991C68.68 33.8726 68.1513 33.5138 67.6982 33.0229C67.2451 32.5321 66.8911 31.9137 66.6362 31.168C66.3908 30.4222 66.268 29.516 66.268 28.4492V18.1831H68.9302V27.189C68.9302 28.0291 68.9585 28.7277 69.0151 29.2847C69.0812 29.8322 69.2228 30.3136 69.4399 30.729C69.657 31.1349 69.9497 31.4323 70.3179 31.6211C70.6955 31.8099 71.2335 31.9043 71.9321 31.9043C72.5835 31.9043 73.2773 31.7202 74.0137 31.3521C74.75 30.9839 75.4249 30.5308 76.0386 29.9927V18.1831H78.7007V34ZM93.0732 26.042C93.0732 24.154 92.7853 22.7238 92.2095 21.7515C91.6336 20.7697 90.7085 20.2788 89.4341 20.2788C88.7072 20.2788 87.9708 20.4487 87.2251 20.7886C86.4888 21.1284 85.8185 21.5579 85.2143 22.0771V31.1396C85.8846 31.4701 86.4793 31.7061 86.9985 31.8477C87.5177 31.9798 88.0888 32.0459 88.7119 32.0459C90.0713 32.0459 91.138 31.5645 91.9121 30.6016C92.6862 29.6387 93.0732 28.1188 93.0732 26.042ZM95.8203 25.8296C95.8203 28.4162 95.1925 30.4977 93.937 32.0742C92.6815 33.6507 91.1097 34.439 89.2217 34.439C88.3626 34.439 87.6263 34.3304 87.0127 34.1133C86.4085 33.9056 85.8091 33.6224 85.2143 33.2637L85.0444 34H82.5522V11.9668H85.2143V19.8398C85.8846 19.2357 86.6115 18.7354 87.395 18.3389C88.1785 17.9424 89.0659 17.7441 90.0571 17.7441C91.8413 17.7441 93.2479 18.4616 94.2768 19.8965C95.3058 21.3219 95.8203 23.2996 95.8203 25.8296ZM105.449 34.3682C102.929 34.3682 100.97 33.6602 99.5727 32.2441C98.185 30.8187 97.4912 28.7985 97.4912 26.1836C97.4912 23.6064 98.1662 21.5579 99.5161 20.0381C100.866 18.5088 102.631 17.7441 104.812 17.7441C105.794 17.7441 106.662 17.8857 107.417 18.1689C108.173 18.4521 108.833 18.8958 109.4 19.5C109.966 20.1042 110.401 20.8452 110.703 21.7231C111.005 22.5916 111.156 23.6584 111.156 24.9233V26.3677H100.196C100.196 28.2085 100.658 29.6151 101.583 30.5874C102.509 31.5597 103.788 32.0459 105.421 32.0459C106.006 32.0459 106.577 31.9798 107.134 31.8477C107.701 31.7155 108.21 31.5456 108.664 31.3379C109.145 31.1208 109.551 30.9131 109.881 30.7148C110.212 30.5072 110.485 30.3136 110.703 30.1343H110.858V33.0371C110.547 33.1598 110.16 33.3156 109.697 33.5044C109.235 33.6838 108.819 33.8254 108.451 33.9292C107.932 34.0708 107.46 34.1794 107.035 34.2549C106.62 34.3304 106.091 34.3682 105.449 34.3682ZM108.564 24.3286C108.546 23.6112 108.461 22.9928 108.31 22.4736C108.159 21.9544 107.941 21.5155 107.658 21.1567C107.347 20.7603 106.945 20.4582 106.455 20.2505C105.973 20.0428 105.374 19.939 104.656 19.939C103.948 19.939 103.344 20.0475 102.844 20.2646C102.353 20.4723 101.904 20.7791 101.499 21.1851C101.102 21.6004 100.8 22.063 100.592 22.5728C100.385 23.0731 100.252 23.6584 100.196 24.3286H108.564Z" fill="white"/>
</svg>
